<?xml version="1.0" encoding="UTF-8" standalone="no"?>
<!-- Created with Inkscape (http://www.inkscape.org/) -->

<svg
   xmlns:dc="http://purl.org/dc/elements/1.1/"
   xmlns:cc="http://creativecommons.org/ns#"
   xmlns:rdf="http://www.w3.org/1999/02/22-rdf-syntax-ns#"
   xmlns:svg="http://www.w3.org/2000/svg"
   xmlns="http://www.w3.org/2000/svg"
   xmlns:sodipodi="http://sodipodi.sourceforge.net/DTD/sodipodi-0.dtd"
   xmlns:inkscape="http://www.inkscape.org/namespaces/inkscape"
   width="162"
   height="80"
   id="svg2"
   version="1.1"
   inkscape:version="0.48.4 r9943 custom"
   sodipodi:docname="logo.svg">
  <defs
     id="defs4" />
  <sodipodi:namedview
     id="base"
     pagecolor="#ffffff"
     bordercolor="#666666"
     borderopacity="1.0"
     inkscape:pageopacity="0.0"
     inkscape:pageshadow="2"
     inkscape:zoom="2.1236432"
     inkscape:cx="135.59905"
     inkscape:cy="64.506746"
     inkscape:document-units="px"
     inkscape:current-layer="layer1"
     showgrid="false"
     inkscape:window-width="1280"
     inkscape:window-height="751"
     inkscape:window-x="0"
     inkscape:window-y="23"
     inkscape:window-maximized="0" />
  <metadata
     id="metadata7">
    <rdf:RDF>
      <cc:Work
         rdf:about="">
        <dc:format>image/svg+xml</dc:format>
        <dc:type
           rdf:resource="http://purl.org/dc/dcmitype/StillImage" />
        <dc:title />
      </cc:Work>
    </rdf:RDF>
  </metadata>
  <g
     inkscape:label="Layer 1"
     inkscape:groupmode="layer"
     id="layer1"
     transform="translate(0,-972.36218)">
    <path
       style="fill:#ffffff;fill-opacity:1;stroke:none"
       d="m 80.506679,974.01938 c -21.105962,0 -38.20859,17.10263 -38.20859,38.20862 0,21.1059 17.102628,38.2086 38.20859,38.2086 21.105951,0 38.208581,-17.1027 38.208581,-38.2086 0,-21.10599 -17.10263,-38.20862 -38.208581,-38.20862 z M 33.684765,987.9378 c -0.662038,5e-5 -1.457911,0.19854 -2.414116,0.56627 -0.294262,0.22073 -1.11993,0.86376 -2.443919,1.96706 -1.324046,1.02983 -2.899933,2.26835 -4.738819,3.66588 -1.838933,1.39762 -3.782004,2.88218 -5.841562,4.50039 -1.986046,1.6183 -3.913256,3.1326 -5.752152,4.5302 -1.838924,1.3976 -3.4148097,2.6063 -4.7388178,3.6361 -1.2504664,1.0297 -2.04634,1.7026 -2.4141153,1.9968 -1.3975784,1.1034 -2.1160763,2.4034 -2.1160763,3.8745 0,1.2505 0.6113279,2.4592 1.7882335,3.6361 1.9124562,1.3241 4.0083612,2.8543 6.2886209,4.6196 2.280231,1.6919 4.590486,3.4206 6.944307,5.1859 2.353782,1.7654 4.664037,3.4941 6.944306,5.1859 2.280222,1.6917 4.360267,3.2061 6.19921,4.5302 1.029755,0.4413 1.932799,0.6557 2.741958,0.6557 1.250419,0 2.290446,-0.3672 3.099605,-1.1028 0.809082,-0.8092 1.192117,-1.8035 1.192155,-2.9804 -3.8e-5,-1.1769 -0.383073,-2.3241 -1.192155,-3.4274 -1.471168,-1.1034 -3.199889,-2.3279 -5.185877,-3.7255 -1.912495,-1.4712 -3.855565,-2.9399 -5.841563,-4.411 -1.986046,-1.5447 -3.974781,-3.0432 -5.960779,-4.4407 -1.912484,-1.4712 -3.625355,-2.7414 -5.096465,-3.8448 1.250438,-1.0297 2.826334,-2.2842 4.738819,-3.7553 1.912446,-1.4711 3.901172,-3.0014 5.960778,-4.6195 2.059549,-1.6183 4.048284,-3.1783 5.960778,-4.64949 1.912438,-1.47109 3.518128,-2.72545 4.768623,-3.75529 0.956195,-1.17685 1.430549,-2.38557 1.430587,-3.63607 -3.8e-5,-1.17686 -0.412877,-2.17122 -1.22196,-2.98039 -0.809159,-0.80907 -1.849176,-1.22191 -3.099604,-1.22196 z m 94.359115,0 c -1.25047,5e-5 -2.26069,0.41289 -3.0698,1.22196 -0.80913,0.80917 -1.22197,1.80353 -1.22196,2.98039 -1e-5,1.2505 0.47434,2.45922 1.43059,3.63607 1.25044,1.02984 2.82634,2.2842 4.73882,3.75529 1.91245,1.47119 3.90118,3.03119 5.96077,4.64949 2.05956,1.6181 4.0483,3.1484 5.96078,4.6195 1.91245,1.4711 3.48834,2.7256 4.73882,3.7553 -1.47116,1.1034 -3.19988,2.3736 -5.18588,3.8448 -1.91248,1.3975 -3.85555,2.896 -5.84156,4.4407 l -5.96078,4.411 c -1.91247,1.3976 -3.59554,2.6221 -5.06666,3.7255 -0.80913,1.1033 -1.22197,2.2505 -1.22196,3.4274 -1e-5,1.1769 0.41283,2.1712 1.22196,2.9804 0.80911,0.7356 1.81934,1.1028 3.0698,1.1028 0.88266,0 1.81552,-0.2144 2.77176,-0.6557 1.8389,-1.3241 3.88914,-2.8385 6.16941,-4.5302 2.28023,-1.6918 4.62028,-3.4205 6.97411,-5.1859 2.35378,-1.7653 4.66403,-3.494 6.94431,-5.1859 2.35377,-1.7653 4.44967,-3.2955 6.28862,-4.6196 1.17687,-1.1769 1.75839,-2.3856 1.75843,-3.6361 -4e-5,-1.4711 -0.68874,-2.7711 -2.08627,-3.8745 -0.36783,-0.2942 -1.20936,-0.9671 -2.53334,-1.9968 -1.25049,-1.0298 -2.81053,-2.2385 -4.6494,-3.6361 -1.83895,-1.3976 -3.78202,-2.9119 -5.84157,-4.5302 -1.98604,-1.61821 -3.91326,-3.10277 -5.75215,-4.50039 -1.83892,-1.39753 -3.41482,-2.63605 -4.73882,-3.66588 -1.25047,-1.1033 -2.04635,-1.74633 -2.41411,-1.96706 -0.95624,-0.36773 -1.78192,-0.56622 -2.44392,-0.56627 z m -27.47919,4.44078 c 1.12661,-0.006 2.16165,0.20697 3.09961,0.71529 6.00295,3.25332 5.24423,16.27743 -1.69883,29.08863 -6.94304,12.8111 -17.4527,20.5694 -23.455652,17.316 -0.407803,-0.221 -0.75719,-0.4966 -1.102744,-0.8046 -5.329403,-2.1033 -11.529318,-7.3488 -16.630571,-14.6338 -8.358166,-11.9362 -10.600019,-24.78472 -5.007054,-28.70113 5.532346,-3.87395 16.645802,2.43732 24.975661,14.12713 5.827009,-10.29322 13.91128,-17.075 19.81958,-17.10752 z"
       id="path2802"
       inkscape:export-filename="/Users/muslih/Documents/project/codinglove/_design/public/img/logo.png"
       inkscape:export-xdpi="90"
       inkscape:export-ydpi="90"
       inkscape:connector-curvature="0" />
  </g>
</svg>
